<svg xmlns="http://www.w3.org/2000/svg" xmlns:xlink="http://www.w3.org/1999/xlink" id="Group_187" data-name="Group 187" width="264.592" height="47" viewBox="0 0 264.592 47"><defs><clipPath id="clip-path"><rect id="Rectangle_112" data-name="Rectangle 112" width="264.592" height="47" fill="none"></rect></clipPath></defs><g id="Group_186" data-name="Group 186" clip-path="url(#clip-path)"><path id="Path_66" data-name="Path 66" d="M150.924,57.181a8.783,8.783,0,0,1-6.461-2.341,8.233,8.233,0,0,1-2.365-6.122,9.249,9.249,0,0,1,.57-3.243,8.692,8.692,0,0,1,1.605-2.721,7.324,7.324,0,0,1,2.626-1.882,8.684,8.684,0,0,1,3.52-.7,7.977,7.977,0,0,1,3.369.664,5.569,5.569,0,0,1,2.278,1.859,8.5,8.5,0,0,1,1.242,2.681,12.554,12.554,0,0,1,.4,3.29,2.317,2.317,0,0,1-.079.7H146.243a4.59,4.59,0,0,0,1.447,3.511,5.4,5.4,0,0,0,3.6,1.139,8.873,8.873,0,0,0,5.125-1.74l1.06,2.847a11.748,11.748,0,0,1-3.092,1.558,11.306,11.306,0,0,1-3.457.5M146.29,46.757h8.067a4.446,4.446,0,0,0-1.282-2.641,3.463,3.463,0,0,0-2.436-.918,4.273,4.273,0,0,0-2.831.949,4.616,4.616,0,0,0-1.519,2.61" transform="translate(-90.554 -25.603)" fill="#fff"></path><path id="Path_67" data-name="Path 67" d="M150.594,57.04a9,9,0,0,1-6.593-2.4,8.45,8.45,0,0,1-2.421-6.255,9.469,9.469,0,0,1,.581-3.308A8.918,8.918,0,0,1,143.8,42.3a7.546,7.546,0,0,1,2.692-1.931,8.91,8.91,0,0,1,3.595-.712,8.194,8.194,0,0,1,3.448.682,5.777,5.777,0,0,1,2.353,1.921,8.724,8.724,0,0,1,1.27,2.74,12.8,12.8,0,0,1,.41,3.339,2.47,2.47,0,0,1-.089.756l-.043.128H146.11a4.326,4.326,0,0,0,1.371,3.18,5.243,5.243,0,0,0,3.477,1.1,8.729,8.729,0,0,0,5.018-1.706l.2-.139,1.2,3.212-.12.083a12.017,12.017,0,0,1-3.142,1.583,11.548,11.548,0,0,1-3.514.507m-.506-17a8.535,8.535,0,0,0-3.445.68,7.167,7.167,0,0,0-2.559,1.834,8.543,8.543,0,0,0-1.571,2.662,9.1,9.1,0,0,0-.558,3.178,8.088,8.088,0,0,0,2.309,5.988,8.642,8.642,0,0,0,6.329,2.287,11.165,11.165,0,0,0,3.4-.49,11.514,11.514,0,0,0,2.922-1.451l-.925-2.485a9,9,0,0,1-5.033,1.638,5.608,5.608,0,0,1-3.719-1.183,4.79,4.79,0,0,1-1.514-3.648l-.008-.195h11.439a2.876,2.876,0,0,0,.037-.509,12.428,12.428,0,0,0-.4-3.241,8.353,8.353,0,0,0-1.214-2.623,5.408,5.408,0,0,0-2.2-1.8,7.821,7.821,0,0,0-3.29-.647m4.16,6.58h-8.524l.052-.23a4.816,4.816,0,0,1,1.582-2.712,4.474,4.474,0,0,1,2.952-.993,3.662,3.662,0,0,1,2.563.967,4.648,4.648,0,0,1,1.339,2.75ZM146.2,46.24h7.6a4.156,4.156,0,0,0-1.184-2.316,3.3,3.3,0,0,0-2.308-.868,4.111,4.111,0,0,0-2.711.905,4.367,4.367,0,0,0-1.4,2.278" transform="translate(-90.224 -25.274)" fill="#fff"></path><path id="Path_68" data-name="Path 68" d="M202.675,57.182a8.472,8.472,0,0,1-3.543-.712,6.7,6.7,0,0,1-2.515-1.9,8.578,8.578,0,0,1-1.439-2.642,9.5,9.5,0,0,1-.49-3.053,10.161,10.161,0,0,1,.506-3.219,9.092,9.092,0,0,1,1.479-2.768,6.814,6.814,0,0,1,2.57-1.977,8.559,8.559,0,0,1,3.622-.736,5.292,5.292,0,0,1,4.524,2.135V40.589h3.844V56.818h-3.939V54.6a5.384,5.384,0,0,1-4.619,2.578m.49-3.163a3.8,3.8,0,0,0,3.314-1.448,6.515,6.515,0,0,0,1.036-3.867,6.281,6.281,0,0,0-1.1-3.915,3.936,3.936,0,0,0-3.33-1.432,4.051,4.051,0,0,0-3.346,1.44,5.988,5.988,0,0,0-1.163,3.875,6.055,6.055,0,0,0,1.163,3.891,4.12,4.12,0,0,0,3.424,1.455" transform="translate(-124.067 -25.604)" fill="#fff"></path><path id="Path_69" data-name="Path 69" d="M202.346,57.04a8.7,8.7,0,0,1-3.621-.729,6.914,6.914,0,0,1-2.584-1.952,8.8,8.8,0,0,1-1.471-2.7,9.729,9.729,0,0,1-.5-3.113,10.4,10.4,0,0,1,.515-3.278,9.32,9.32,0,0,1,1.51-2.825,7.028,7.028,0,0,1,2.64-2.032,8.788,8.788,0,0,1,3.7-.753,5.544,5.544,0,0,1,4.336,1.8V40.071h4.219v16.6h-4.314V54.842a5.464,5.464,0,0,1-4.431,2.2m.19-17a8.418,8.418,0,0,0-3.544.719,6.659,6.659,0,0,0-2.5,1.923,8.944,8.944,0,0,0-1.449,2.711,10.026,10.026,0,0,0-.5,3.16,9.364,9.364,0,0,0,.48,2.993,8.419,8.419,0,0,0,1.408,2.584,6.548,6.548,0,0,0,2.446,1.845,8.328,8.328,0,0,0,3.466.695,5.229,5.229,0,0,0,4.464-2.5l.342-.5V56.3h3.563V40.447h-3.468v2.105l-.338-.457a5.136,5.136,0,0,0-4.374-2.06m.3,13.841a4.316,4.316,0,0,1-3.571-1.526,6.263,6.263,0,0,1-1.2-4.009,6.2,6.2,0,0,1,1.2-3.993,4.246,4.246,0,0,1,3.491-1.509,4.129,4.129,0,0,1,3.479,1.5,6.489,6.489,0,0,1,1.138,4.029A6.724,6.724,0,0,1,206.3,52.35a3.987,3.987,0,0,1-3.467,1.526m-.079-10.662a3.889,3.889,0,0,0-3.2,1.37,5.835,5.835,0,0,0-1.121,3.757,5.9,5.9,0,0,0,1.122,3.774,3.959,3.959,0,0,0,3.277,1.385A3.633,3.633,0,0,0,206,52.132a6.364,6.364,0,0,0,1-3.758,6.129,6.129,0,0,0-1.061-3.8,3.774,3.774,0,0,0-3.181-1.358" transform="translate(-123.738 -25.274)" fill="#fff"></path><path id="Path_70" data-name="Path 70" d="M252.783,56.817V44.7q0-.949-.079-1.977t-.158-1.582l-.079-.554h4.176v2.135a8.359,8.359,0,0,1,1.922-1.906,3.791,3.791,0,0,1,2.159-.641,6.42,6.42,0,0,1,1.613.238v3.432a6.327,6.327,0,0,0-1.962-.348,3.54,3.54,0,0,0-2.657,1.06,4.235,4.235,0,0,0-1.028,3.069v9.19Z" transform="translate(-160.888 -25.603)" fill="#fff"></path><path id="Path_71" data-name="Path 71" d="M256.5,56.675h-4.283v-12.3c0-.623-.026-1.283-.079-1.963s-.1-1.206-.157-1.57l-.11-.768h4.58v1.786a7.924,7.924,0,0,1,1.63-1.525,3.993,3.993,0,0,1,2.263-.673,6.626,6.626,0,0,1,1.661.244l.14.037v3.836L261.9,43.7c-1.9-.625-3.417-.376-4.426.664A4.073,4.073,0,0,0,256.5,47.3Zm-3.907-.375h3.532v-9a4.43,4.43,0,0,1,1.081-3.2c1.066-1.1,2.629-1.407,4.566-.836V40.23a6.057,6.057,0,0,0-1.426-.2,3.627,3.627,0,0,0-2.055.609,8.232,8.232,0,0,0-1.877,1.864l-.337.442v-2.5H252.3l.049.34c.053.371.105.893.16,1.593s.079,1.359.079,1.992Z" transform="translate(-160.508 -25.273)" fill="#fff"></path><path id="Path_72" data-name="Path 72" d="M286.623,56.817V46.773q0-1.724-.079-3.266t-.158-2.222l-.079-.7h4.161v2.167a5.356,5.356,0,0,1,2.238-1.922,6.374,6.374,0,0,1,2.713-.657,7.444,7.444,0,0,1,2.467.372,4.839,4.839,0,0,1,1.874,1.2A5.344,5.344,0,0,1,301,44.037a12.654,12.654,0,0,1,.427,3.527v9.253h-3.923V47.3a5.206,5.206,0,0,0-.672-3.045,2.6,2.6,0,0,0-2.222-.894,3.617,3.617,0,0,0-1.249.253,5.828,5.828,0,0,0-1.321.7,3.685,3.685,0,0,0-1.068,1.187,3.135,3.135,0,0,0-.427,1.605v9.712Z" transform="translate(-182.453 -25.603)" fill="#fff"></path><path id="Path_73" data-name="Path 73" d="M301.245,56.675h-4.3v-9.71a5.071,5.071,0,0,0-.635-2.932,2.442,2.442,0,0,0-2.073-.819,3.447,3.447,0,0,0-1.184.242,5.679,5.679,0,0,0-1.278.682,3.515,3.515,0,0,0-1.013,1.127,2.967,2.967,0,0,0-.4,1.511v9.9h-4.3V46.443c0-1.141-.026-2.237-.079-3.257s-.1-1.761-.157-2.211l-.1-.905h4.558v1.784a5.585,5.585,0,0,1,1.971-1.521,6.586,6.586,0,0,1,2.792-.674,7.664,7.664,0,0,1,2.529.383,5.056,5.056,0,0,1,1.946,1.247,5.56,5.56,0,0,1,1.288,2.365,12.908,12.908,0,0,1,.435,3.58Zm-3.923-.375h3.548V47.234a12.545,12.545,0,0,0-.42-3.474,5.19,5.19,0,0,0-1.2-2.207,4.682,4.682,0,0,0-1.8-1.156,7.289,7.289,0,0,0-2.405-.361,6.217,6.217,0,0,0-2.633.639,5.193,5.193,0,0,0-2.161,1.855l-.344.52v-2.6h-3.762l.055.487c.053.457.107,1.209.159,2.234s.08,2.129.08,3.276V56.3h3.546V46.775a3.338,3.338,0,0,1,.453-1.7,3.888,3.888,0,0,1,1.122-1.246,6.06,6.06,0,0,1,1.364-.727,3.824,3.824,0,0,1,1.315-.265,2.792,2.792,0,0,1,2.373.969,5.324,5.324,0,0,1,.71,3.158Z" transform="translate(-182.082 -25.273)" fill="#fff"></path><path id="Path_74" data-name="Path 74" d="M347.2,57.181a8.782,8.782,0,0,1-6.461-2.341,8.234,8.234,0,0,1-2.365-6.122,9.249,9.249,0,0,1,.57-3.243,8.693,8.693,0,0,1,1.605-2.721,7.324,7.324,0,0,1,2.626-1.882,8.684,8.684,0,0,1,3.52-.7,7.977,7.977,0,0,1,3.369.664A5.568,5.568,0,0,1,352.34,42.7a8.5,8.5,0,0,1,1.242,2.681,12.554,12.554,0,0,1,.4,3.29,2.317,2.317,0,0,1-.079.7H342.518a4.589,4.589,0,0,0,1.447,3.511,5.4,5.4,0,0,0,3.6,1.139,8.873,8.873,0,0,0,5.125-1.74l1.06,2.847a11.749,11.749,0,0,1-3.092,1.558,11.306,11.306,0,0,1-3.457.5m-4.634-10.424h8.067a4.446,4.446,0,0,0-1.282-2.641,3.463,3.463,0,0,0-2.436-.918,4.273,4.273,0,0,0-2.831.949,4.616,4.616,0,0,0-1.519,2.61" transform="translate(-215.633 -25.603)" fill="#fff"></path><path id="Path_75" data-name="Path 75" d="M346.869,57.04a9,9,0,0,1-6.593-2.4,8.45,8.45,0,0,1-2.421-6.255,9.47,9.47,0,0,1,.581-3.308,8.918,8.918,0,0,1,1.64-2.779,7.546,7.546,0,0,1,2.692-1.931,8.909,8.909,0,0,1,3.595-.712,8.194,8.194,0,0,1,3.448.682,5.777,5.777,0,0,1,2.353,1.921,8.724,8.724,0,0,1,1.27,2.74,12.8,12.8,0,0,1,.41,3.339,2.469,2.469,0,0,1-.089.756l-.043.128H342.385a4.326,4.326,0,0,0,1.371,3.18,5.243,5.243,0,0,0,3.477,1.1,8.729,8.729,0,0,0,5.018-1.706l.2-.139,1.2,3.212-.12.083a12.018,12.018,0,0,1-3.142,1.583,11.548,11.548,0,0,1-3.514.507m-.506-17a8.535,8.535,0,0,0-3.445.68,7.167,7.167,0,0,0-2.559,1.834,8.543,8.543,0,0,0-1.571,2.662,9.1,9.1,0,0,0-.558,3.178,8.088,8.088,0,0,0,2.309,5.988,8.642,8.642,0,0,0,6.329,2.287,11.165,11.165,0,0,0,3.4-.49,11.513,11.513,0,0,0,2.922-1.451l-.925-2.485a9,9,0,0,1-5.033,1.638,5.608,5.608,0,0,1-3.719-1.183A4.79,4.79,0,0,1,342,49.045l-.008-.195H353.43a2.875,2.875,0,0,0,.037-.509,12.428,12.428,0,0,0-.4-3.241,8.353,8.353,0,0,0-1.214-2.623,5.408,5.408,0,0,0-2.2-1.8,7.821,7.821,0,0,0-3.29-.647m4.16,6.58H342l.052-.23a4.816,4.816,0,0,1,1.582-2.712,4.474,4.474,0,0,1,2.952-.993,3.662,3.662,0,0,1,2.563.967,4.648,4.648,0,0,1,1.339,2.75Zm-8.048-.375h7.6a4.156,4.156,0,0,0-1.184-2.316,3.3,3.3,0,0,0-2.308-.868,4.111,4.111,0,0,0-2.711.905,4.367,4.367,0,0,0-1.4,2.278" transform="translate(-215.303 -25.274)" fill="#fff"></path><path id="Path_76" data-name="Path 76" d="M398.366,45.927a6.884,6.884,0,0,1-5.276-2.309,8.634,8.634,0,0,1-2.127-6.09,10.649,10.649,0,0,1,.49-3.259,8.878,8.878,0,0,1,1.415-2.736,6.462,6.462,0,0,1,2.428-1.906,7.853,7.853,0,0,1,3.369-.7,5.486,5.486,0,0,1,2.839.688,4.614,4.614,0,0,1,1.621,1.432V22.517h3.891V41.229q0,.1.143,4.334h-4.018l-.032-2.072a2.559,2.559,0,0,1-.474.743,5.391,5.391,0,0,1-.885.783,4.583,4.583,0,0,1-1.44.657,7.067,7.067,0,0,1-1.945.253m.806-3.163a3.907,3.907,0,0,0,1.883-.435,3.291,3.291,0,0,0,1.273-1.2,6.054,6.054,0,0,0,.7-1.685,8.156,8.156,0,0,0,.229-1.977,6.693,6.693,0,0,0-1.028-3.868,3.5,3.5,0,0,0-3.085-1.495,3.622,3.622,0,0,0-2.318.744,4.082,4.082,0,0,0-1.344,1.9,8.05,8.05,0,0,0-.4,2.657,8.461,8.461,0,0,0,.23,2.025,5.993,5.993,0,0,0,.7,1.7,3.272,3.272,0,0,0,1.281,1.2,3.95,3.95,0,0,0,1.89.435" transform="translate(-249.147 -14.349)" fill="#fff"></path><path id="Path_77" data-name="Path 77" d="M398.036,45.785a7.094,7.094,0,0,1-5.414-2.37,8.853,8.853,0,0,1-2.177-6.217,10.887,10.887,0,0,1,.5-3.316,9.106,9.106,0,0,1,1.446-2.793,6.673,6.673,0,0,1,2.5-1.962,8.072,8.072,0,0,1,3.449-.721,5.69,5.69,0,0,1,2.935.714,5.814,5.814,0,0,1,1.338,1.04V22h4.267V40.9c0,.089.081,2.512.143,4.328l.007.194h-4.4l-.024-1.583q-.072.1-.156.19a5.636,5.636,0,0,1-.916.811,4.776,4.776,0,0,1-1.5.685,7.294,7.294,0,0,1-2,.26m.3-17a7.7,7.7,0,0,0-3.29.686,6.306,6.306,0,0,0-2.359,1.851A8.729,8.729,0,0,0,391.3,34a10.518,10.518,0,0,0-.481,3.2,8.49,8.49,0,0,0,2.078,5.963,6.731,6.731,0,0,0,5.137,2.249,6.925,6.925,0,0,0,1.894-.246,4.4,4.4,0,0,0,1.381-.628,5.25,5.25,0,0,0,.855-.754,2.4,2.4,0,0,0,.441-.688l.348-.889L403,45.046h3.639c-.12-3.569-.136-4.1-.136-4.146V22.375h-3.515v9l-.348-.563a4.454,4.454,0,0,0-1.557-1.369,5.322,5.322,0,0,0-2.743-.662m.506,13.841a4.157,4.157,0,0,1-1.979-.457,3.474,3.474,0,0,1-1.353-1.27,6.229,6.229,0,0,1-.718-1.753,8.692,8.692,0,0,1-.235-2.069,8.266,8.266,0,0,1,.414-2.719,4.283,4.283,0,0,1,1.405-1.983,3.82,3.82,0,0,1,2.434-.784,3.688,3.688,0,0,1,3.239,1.576,6.9,6.9,0,0,1,1.061,3.974,8.359,8.359,0,0,1-.235,2.022,6.263,6.263,0,0,1-.717,1.737,3.493,3.493,0,0,1-1.345,1.27,4.114,4.114,0,0,1-1.971.457m-.032-10.662a3.455,3.455,0,0,0-2.2.7,3.918,3.918,0,0,0-1.284,1.813,7.9,7.9,0,0,0-.393,2.6,8.338,8.338,0,0,0,.224,1.98,5.847,5.847,0,0,0,.674,1.648,3.1,3.1,0,0,0,1.209,1.134,3.786,3.786,0,0,0,1.8.413,3.738,3.738,0,0,0,1.793-.412,3.121,3.121,0,0,0,1.2-1.134,5.891,5.891,0,0,0,.674-1.633,7.98,7.98,0,0,0,.224-1.932,6.538,6.538,0,0,0-.995-3.761,3.292,3.292,0,0,0-2.93-1.414" transform="translate(-248.817 -14.019)" fill="#fff"></path><path id="Path_78" data-name="Path 78" d="M474.161,56.817V45.808q0-1.677-.158-3.449l-.142-1.772h4.128v2.12a4.666,4.666,0,0,1,1.843-1.819,5.329,5.329,0,0,1,2.7-.712,5.566,5.566,0,0,1,2.863.759,4.95,4.95,0,0,1,1.993,2.246,6.219,6.219,0,0,1,5.268-3.006,5.5,5.5,0,0,1,4.468,1.788,7.411,7.411,0,0,1,1.5,4.9v9.949h-3.923V47.105a6.942,6.942,0,0,0-.111-1.25,5.967,5.967,0,0,0-.356-1.194,2.189,2.189,0,0,0-.728-.949,1.878,1.878,0,0,0-1.147-.356,3.582,3.582,0,0,0-2.863,1.329,4.453,4.453,0,0,0-1.124,2.943v9.19h-3.923V46.9a7.334,7.334,0,0,0-.054-.91,5.473,5.473,0,0,0-.214-.933,3.058,3.058,0,0,0-.419-.862,1.981,1.981,0,0,0-.727-.6,2.327,2.327,0,0,0-1.068-.237,3.8,3.8,0,0,0-2.769,1.084,3.425,3.425,0,0,0-1.107,2.523v9.854Z" transform="translate(-301.975 -25.603)" fill="#fff"></path><path id="Path_79" data-name="Path 79" d="M498.448,56.675h-4.3v-9.9a6.706,6.706,0,0,0-.108-1.216A5.768,5.768,0,0,0,493.7,44.4a2.012,2.012,0,0,0-.665-.87,1.68,1.68,0,0,0-1.035-.32,3.374,3.374,0,0,0-2.719,1.262A4.289,4.289,0,0,0,488.2,47.3v9.378h-4.3V46.569a7.164,7.164,0,0,0-.053-.886,5.259,5.259,0,0,0-.206-.9,2.9,2.9,0,0,0-.393-.81,1.8,1.8,0,0,0-.66-.543,2.155,2.155,0,0,0-.983-.217,3.634,3.634,0,0,0-2.637,1.03,3.259,3.259,0,0,0-1.05,2.389V56.675h-4.3v-11.2c0-1.1-.053-2.258-.157-3.432L473.3,40.07h4.519v1.67a5.1,5.1,0,0,1,1.562-1.344,5.532,5.532,0,0,1,2.789-.737,5.773,5.773,0,0,1,2.958.785,5.073,5.073,0,0,1,1.928,2.046,6.334,6.334,0,0,1,5.239-2.831,5.7,5.7,0,0,1,4.612,1.855,7.626,7.626,0,0,1,1.539,5.024Zm-3.923-.375h3.547V46.538a7.266,7.266,0,0,0-1.451-4.782,5.34,5.34,0,0,0-4.325-1.72,6.068,6.068,0,0,0-5.114,2.925l-.186.268-.138-.3a4.78,4.78,0,0,0-1.917-2.164,5.406,5.406,0,0,0-2.769-.733,5.169,5.169,0,0,0-2.6.687,4.507,4.507,0,0,0-1.771,1.746l-.353.65V40.446h-3.737l.126,1.569c.1,1.183.158,2.348.158,3.463V56.3h3.548V46.633a3.623,3.623,0,0,1,1.163-2.657,4,4,0,0,1,2.9-1.137,2.52,2.52,0,0,1,1.153.258,2.172,2.172,0,0,1,.8.659,3.271,3.271,0,0,1,.446.914,5.627,5.627,0,0,1,.221.966,7.507,7.507,0,0,1,.057.933V56.3h3.547v-9a4.657,4.657,0,0,1,1.168-3.063,3.779,3.779,0,0,1,3.007-1.4,2.068,2.068,0,0,1,1.258.393,2.394,2.394,0,0,1,.79,1.028,6.22,6.22,0,0,1,.367,1.232,7.155,7.155,0,0,1,.114,1.283Z" transform="translate(-301.619 -25.273)" fill="#fff"></path><path id="Path_80" data-name="Path 80" d="M561.441,57.181a8.783,8.783,0,0,1-6.462-2.341,8.235,8.235,0,0,1-2.365-6.122,9.258,9.258,0,0,1,.569-3.243,8.714,8.714,0,0,1,1.605-2.721,7.325,7.325,0,0,1,2.626-1.882,8.683,8.683,0,0,1,3.52-.7,7.974,7.974,0,0,1,3.369.664,5.574,5.574,0,0,1,2.278,1.859,8.506,8.506,0,0,1,1.241,2.681,12.538,12.538,0,0,1,.4,3.29,2.345,2.345,0,0,1-.079.7H556.759a4.59,4.59,0,0,0,1.448,3.511,5.4,5.4,0,0,0,3.6,1.139,8.873,8.873,0,0,0,5.125-1.74l1.06,2.847a11.744,11.744,0,0,1-3.092,1.558,11.3,11.3,0,0,1-3.456.5m-4.635-10.424h8.067a4.445,4.445,0,0,0-1.281-2.641,3.464,3.464,0,0,0-2.436-.918,4.275,4.275,0,0,0-2.832.949,4.617,4.617,0,0,0-1.518,2.61" transform="translate(-352.162 -25.603)" fill="#fff"></path><path id="Path_81" data-name="Path 81" d="M561.111,57.04a9,9,0,0,1-6.594-2.4A8.451,8.451,0,0,1,552.1,48.39a9.474,9.474,0,0,1,.581-3.308,8.931,8.931,0,0,1,1.64-2.779,7.548,7.548,0,0,1,2.692-1.931,8.916,8.916,0,0,1,3.6-.712,8.19,8.19,0,0,1,3.447.682,5.78,5.78,0,0,1,2.353,1.921A8.721,8.721,0,0,1,567.675,45a12.786,12.786,0,0,1,.41,3.339A2.488,2.488,0,0,1,568,49.1l-.042.129H556.627A4.324,4.324,0,0,0,558,52.405a5.242,5.242,0,0,0,3.477,1.1,8.731,8.731,0,0,0,5.018-1.706l.2-.139,1.195,3.212-.12.083a12,12,0,0,1-3.141,1.583,11.543,11.543,0,0,1-3.513.507m-.506-17a8.535,8.535,0,0,0-3.445.68,7.171,7.171,0,0,0-2.56,1.834,8.552,8.552,0,0,0-1.571,2.662,9.117,9.117,0,0,0-.558,3.178,8.089,8.089,0,0,0,2.309,5.988,8.642,8.642,0,0,0,6.33,2.287,11.157,11.157,0,0,0,3.4-.49,11.513,11.513,0,0,0,2.922-1.451l-.925-2.485a9,9,0,0,1-5.032,1.638,5.607,5.607,0,0,1-3.719-1.183,4.792,4.792,0,0,1-1.514-3.648l-.008-.2h11.44a2.918,2.918,0,0,0,.037-.509,12.413,12.413,0,0,0-.4-3.241,8.357,8.357,0,0,0-1.214-2.623,5.411,5.411,0,0,0-2.2-1.8,7.822,7.822,0,0,0-3.29-.647m4.16,6.58h-8.524l.052-.23a4.823,4.823,0,0,1,1.582-2.712,4.476,4.476,0,0,1,2.952-.993,3.661,3.661,0,0,1,2.563.967,4.649,4.649,0,0,1,1.339,2.75Zm-8.048-.375h7.6a4.155,4.155,0,0,0-1.183-2.316,3.3,3.3,0,0,0-2.309-.868,4.112,4.112,0,0,0-2.712.905,4.371,4.371,0,0,0-1.4,2.278" transform="translate(-351.832 -25.274)" fill="#fff"></path><path id="Path_82" data-name="Path 82" d="M612.607,45.927a6.883,6.883,0,0,1-5.275-2.309,8.633,8.633,0,0,1-2.128-6.09,10.65,10.65,0,0,1,.491-3.259,8.887,8.887,0,0,1,1.415-2.736,6.464,6.464,0,0,1,2.428-1.906,7.853,7.853,0,0,1,3.37-.7,5.488,5.488,0,0,1,2.839.688,4.613,4.613,0,0,1,1.621,1.432V22.517h3.891V41.229q0,.1.142,4.334h-4.017l-.031-2.072a2.585,2.585,0,0,1-.474.743,5.4,5.4,0,0,1-.886.783,4.586,4.586,0,0,1-1.44.657,7.064,7.064,0,0,1-1.945.253m.807-3.163a3.9,3.9,0,0,0,1.882-.435,3.287,3.287,0,0,0,1.273-1.2,6.074,6.074,0,0,0,.7-1.685,8.175,8.175,0,0,0,.23-1.977,6.693,6.693,0,0,0-1.029-3.868,3.5,3.5,0,0,0-3.084-1.495,3.623,3.623,0,0,0-2.318.744,4.087,4.087,0,0,0-1.344,1.9,8.039,8.039,0,0,0-.4,2.657,8.462,8.462,0,0,0,.23,2.025,5.986,5.986,0,0,0,.7,1.7,3.27,3.27,0,0,0,1.281,1.2,3.95,3.95,0,0,0,1.891.435" transform="translate(-385.675 -14.349)" fill="#fff"></path><path id="Path_83" data-name="Path 83" d="M612.277,45.785a7.09,7.09,0,0,1-5.413-2.37,8.852,8.852,0,0,1-2.178-6.217,10.872,10.872,0,0,1,.5-3.316,9.093,9.093,0,0,1,1.446-2.793,6.672,6.672,0,0,1,2.5-1.962,8.077,8.077,0,0,1,3.45-.721,5.69,5.69,0,0,1,2.935.714,5.827,5.827,0,0,1,1.338,1.04V22h4.267V40.9c0,.082.072,2.233.142,4.328l.007.194h-4.4l-.025-1.583c-.048.063-.1.127-.155.19a5.645,5.645,0,0,1-.917.811,4.78,4.78,0,0,1-1.5.685,7.284,7.284,0,0,1-2,.26m.3-17a7.692,7.692,0,0,0-3.29.686,6.3,6.3,0,0,0-2.359,1.851A8.717,8.717,0,0,0,605.544,34a10.5,10.5,0,0,0-.482,3.2,8.49,8.49,0,0,0,2.078,5.963,6.73,6.73,0,0,0,5.137,2.249,6.924,6.924,0,0,0,1.894-.246,4.406,4.406,0,0,0,1.38-.628,5.251,5.251,0,0,0,.855-.754,2.386,2.386,0,0,0,.44-.688l.349-.892.044,2.845h3.638c-.1-2.918-.136-4.085-.136-4.146V22.375h-3.515v9l-.348-.563a4.469,4.469,0,0,0-1.556-1.369,5.327,5.327,0,0,0-2.744-.662m.506,13.841a4.157,4.157,0,0,1-1.979-.457,3.473,3.473,0,0,1-1.353-1.27,6.213,6.213,0,0,1-.718-1.753,8.691,8.691,0,0,1-.235-2.069,8.276,8.276,0,0,1,.414-2.719,4.3,4.3,0,0,1,1.406-1.983,3.822,3.822,0,0,1,2.434-.784,3.687,3.687,0,0,1,3.239,1.576,6.9,6.9,0,0,1,1.061,3.974,8.357,8.357,0,0,1-.235,2.022,6.26,6.26,0,0,1-.717,1.737,3.5,3.5,0,0,1-1.345,1.27,4.112,4.112,0,0,1-1.971.457m-.032-10.662a3.451,3.451,0,0,0-2.2.7,3.92,3.92,0,0,0-1.284,1.813,7.877,7.877,0,0,0-.393,2.6,8.3,8.3,0,0,0,.224,1.979,5.811,5.811,0,0,0,.674,1.648,3.092,3.092,0,0,0,1.21,1.134,3.781,3.781,0,0,0,1.8.413,3.734,3.734,0,0,0,1.793-.412,3.114,3.114,0,0,0,1.2-1.134,5.9,5.9,0,0,0,.675-1.633,8.008,8.008,0,0,0,.224-1.932,6.539,6.539,0,0,0-1-3.761,3.291,3.291,0,0,0-2.929-1.414" transform="translate(-385.345 -14.019)" fill="#fff"></path><path id="Path_84" data-name="Path 84" d="M661.938,22.56h3.8v3.449h-3.8Zm.016,6.8h3.78V45.591h-3.78Z" transform="translate(-421.83 -14.377)" fill="#fff"></path><path id="Path_85" data-name="Path 85" d="M665.592,45.449h-4.156v-16.6h4.156Zm-3.78-.376h3.4V29.22h-3.4Zm3.78-19.206H661.42V22.043h4.172Zm-3.8-.376h3.421V22.418H661.8Z" transform="translate(-421.499 -14.047)" fill="#fff"></path><path id="Path_86" data-name="Path 86" d="M691.293,57.182a8.47,8.47,0,0,1-3.543-.712,6.709,6.709,0,0,1-2.515-1.9A8.561,8.561,0,0,1,683.8,51.93a9.483,9.483,0,0,1-.491-3.053,10.161,10.161,0,0,1,.506-3.219,9.079,9.079,0,0,1,1.48-2.768,6.812,6.812,0,0,1,2.57-1.977,8.559,8.559,0,0,1,3.623-.736,5.29,5.29,0,0,1,4.523,2.135V40.589h3.844V56.818h-3.939V54.6a5.383,5.383,0,0,1-4.619,2.578m.49-3.163a3.8,3.8,0,0,0,3.314-1.448,6.513,6.513,0,0,0,1.036-3.867,6.281,6.281,0,0,0-1.1-3.915,3.935,3.935,0,0,0-3.33-1.432,4.051,4.051,0,0,0-3.345,1.44,5.992,5.992,0,0,0-1.163,3.875,6.059,6.059,0,0,0,1.163,3.891,4.121,4.121,0,0,0,3.425,1.455" transform="translate(-435.446 -25.604)" fill="#fff"></path><path id="Path_87" data-name="Path 87" d="M690.963,57.04a8.694,8.694,0,0,1-3.621-.729,6.924,6.924,0,0,1-2.584-1.952,8.789,8.789,0,0,1-1.47-2.7,9.735,9.735,0,0,1-.5-3.113,10.408,10.408,0,0,1,.515-3.278,9.3,9.3,0,0,1,1.51-2.825,7.022,7.022,0,0,1,2.639-2.032,8.788,8.788,0,0,1,3.7-.753,5.543,5.543,0,0,1,4.336,1.8V40.071h4.22v16.6h-4.314V54.843a5.462,5.462,0,0,1-4.431,2.2m.19-17a8.417,8.417,0,0,0-3.544.719,6.648,6.648,0,0,0-2.5,1.923,8.913,8.913,0,0,0-1.449,2.711,10.025,10.025,0,0,0-.5,3.16,9.348,9.348,0,0,0,.481,2.993,8.406,8.406,0,0,0,1.408,2.584,6.548,6.548,0,0,0,2.446,1.845,8.328,8.328,0,0,0,3.466.695,5.227,5.227,0,0,0,4.464-2.5l.342-.5V56.3h3.563V40.447h-3.468v2.105l-.339-.457a5.134,5.134,0,0,0-4.372-2.06m.3,13.841a4.318,4.318,0,0,1-3.571-1.526,6.267,6.267,0,0,1-1.2-4.009,6.2,6.2,0,0,1,1.2-3.993,4.248,4.248,0,0,1,3.491-1.509,4.129,4.129,0,0,1,3.479,1.5,6.489,6.489,0,0,1,1.138,4.029,6.724,6.724,0,0,1-1.072,3.977,3.988,3.988,0,0,1-3.467,1.526m-.079-10.662a3.89,3.89,0,0,0-3.2,1.37,5.837,5.837,0,0,0-1.121,3.757,5.9,5.9,0,0,0,1.122,3.775,3.961,3.961,0,0,0,3.278,1.384,3.634,3.634,0,0,0,3.161-1.369,6.36,6.36,0,0,0,1-3.758,6.131,6.131,0,0,0-1.061-3.8,3.774,3.774,0,0,0-3.181-1.358" transform="translate(-435.116 -25.274)" fill="#fff"></path><path id="Path_88" data-name="Path 88" d="M62.635,8.072A8.072,8.072,0,1,1,54.563,0a8.072,8.072,0,0,1,8.072,8.072" transform="translate(-29.627)" fill="#ea401d"></path><path id="Path_89" data-name="Path 89" d="M66.12,73.531a9.814,9.814,0,1,1-9.814-9.814,9.814,9.814,0,0,1,9.814,9.814" transform="translate(-29.628 -40.605)" fill="#22988d"></path><path id="Path_90" data-name="Path 90" d="M11.731,103.1a5.865,5.865,0,1,1-5.865-5.865,5.865,5.865,0,0,1,5.865,5.865" transform="translate(0 -61.962)" fill="#fd9c2c"></path><path id="Path_91" data-name="Path 91" d="M11.731,43.157a5.865,5.865,0,1,1-5.865-5.865,5.865,5.865,0,0,1,5.865,5.865" transform="translate(0 -23.765)" fill="#009bd8"></path></g></svg>